<?xml version="1.0" encoding="UTF-8" standalone="no"?>
<!-- Created with Inkscape (http://www.inkscape.org/) -->

<svg
   version="1.1"
   id="svg1"
   width="414"
   height="181"
   viewBox="0 0 414 181"
   sodipodi:docname="wsdf.svg"
   inkscape:export-filename="Read white.png"
   inkscape:export-xdpi="96"
   inkscape:export-ydpi="96"
   inkscape:version="1.4.3 (fcd0343856, 2026-01-01)"
   xmlns:inkscape="http://www.inkscape.org/namespaces/inkscape"
   xmlns:sodipodi="http://sodipodi.sourceforge.net/DTD/sodipodi-0.dtd"
   xmlns="http://www.w3.org/2000/svg"
   xmlns:svg="http://www.w3.org/2000/svg">
  <defs
     id="defs1">
    <rect
       x="-0.68628264"
       y="46.667219"
       width="214.80646"
       height="196.61998"
       id="rect1" />
  </defs>
  <sodipodi:namedview
     id="namedview1"
     pagecolor="#ffffff"
     bordercolor="#000000"
     borderopacity="0.25"
     inkscape:showpageshadow="2"
     inkscape:pageopacity="0.0"
     inkscape:pagecheckerboard="0"
     inkscape:deskcolor="#d1d1d1"
     inkscape:export-bgcolor="#ffffffa7"
     inkscape:zoom="1.4142136"
     inkscape:cx="281.4285"
     inkscape:cy="3.8890873"
     inkscape:window-width="2560"
     inkscape:window-height="1371"
     inkscape:window-x="0"
     inkscape:window-y="0"
     inkscape:window-maximized="1"
     inkscape:current-layer="g1" />
  <g
     inkscape:groupmode="layer"
     inkscape:label="Image"
     id="g1">
    <g
       id="g3"
       style="fill:#ffffff"
       transform="translate(1.2357292,1.502595)">
      <path
         style="fill:#ffffff;fill-opacity:0.985677"
         d="M 92.648156,0.17157066 C 80.123498,6.5196855 81.667634,14.755076 81.667634,14.755076 c 0,0 -1.029424,10.294239 7.549109,14.240365 0.845226,0.388804 2.235208,0.67373 0.990518,1.074031 -0.732535,0.235589 -2.629142,1.063273 -4.248334,2.005589 -0.742144,0.431904 -1.81271,1.759819 -2.169412,2.318511 -0.703439,1.101777 -1.667512,3.770533 -2.00842,4.570092 -0.44484,1.04332 -0.503782,5.59692 -0.503782,5.59692 l 0.245962,2.041295 0.533396,2.391518 1.155099,2.30623 c 0,0 -2.058848,-1.200995 4.632408,3.774554 6.691255,4.975549 13.725652,8.921675 13.725652,8.921675 l 48.11457,35.385369 2.27942,1.159185 h 71.59275 c 2.25905,-2.298015 1.90519,-4.534284 1.02942,-5.490265 0,0 -0.42893,-0.986531 -1.7157,-1.158102 -0.76056,-0.101408 -63.67711,-0.559391 -63.67711,-0.559391 0,0 -2.28172,-0.391097 -5.12273,-3.086485 -3.19058,-3.027044 -2.38324,-9.802182 -2.0086,-10.890426 1.12487,-3.267512 4.02023,-5.774626 5.76723,-6.172282 2.83183,-0.644589 64.69806,-0.265929 64.69806,-0.265929 2.93098,-0.830694 2.21315,-5.132286 0.6434,-6.004973 l -64.96838,-0.226262 -2.79343,-0.695309 c -5.29361,-2.966459 -4.36146,-4.423338 -5.58341,-6.717028 0.0967,-1.732849 0.21987,-4.728939 0.3019,-5.2409 0.70158,-4.378606 4.75128,-6.789868 5.78637,-6.808208 l 2.78927,-0.38606 63.99586,-1.372565 c 0.85119,-0.504178 1.17545,-0.961863 1.55682,-1.752214 l 0.19203,-0.644569 0.0343,-0.513899 -0.1467,-0.665011 -0.22917,-0.480614 -0.37791,-0.404531 -59.02031,-40.49067502 z"
         id="path1"
         sodipodi:nodetypes="ccsssssccccscccccscssscccccsccccccccccc" />
      <text
         xml:space="preserve"
         id="text1"
         style="font-style:normal;font-variant:normal;font-weight:bold;font-stretch:normal;font-size:144px;font-family:'Liberation Mono';-inkscape-font-specification:'Liberation Mono, Bold';font-variant-ligatures:normal;font-variant-caps:normal;font-variant-numeric:normal;font-variant-east-asian:normal;writing-mode:lr-tb;direction:ltr;white-space:pre;shape-inside:url(#rect1);fill:#ffffff;fill-opacity:0.985677"
         transform="matrix(1.0358182,0,0,1.065118,-8.899008,-82.634853)"><tspan
           x="-0.68554688"
           y="172.93927"
           id="tspan4">R</tspan></text>
      <text
         xml:space="preserve"
         style="font-style:normal;font-variant:normal;font-weight:bold;font-stretch:normal;font-size:151.34px;font-family:'Liberation Mono';-inkscape-font-specification:'Liberation Mono, Bold';font-variant-ligatures:normal;font-variant-caps:normal;font-variant-numeric:normal;font-variant-east-asian:normal;writing-mode:lr-tb;direction:ltr;fill:#ffffff;fill-opacity:0.985677;stroke-width:1.05097"
         x="236.00723"
         y="99.542191"
         id="text2"
         transform="scale(1.0003135,0.99968661)"><tspan
           sodipodi:role="line"
           id="tspan2"
           x="236.00723"
           y="99.542191"
           style="fill:#ffffff;stroke-width:1.05097">AD</tspan></text>
      <text
         xml:space="preserve"
         style="font-style:normal;font-variant:normal;font-weight:normal;font-stretch:normal;font-size:93.927px;font-family:'Liberation Sans';-inkscape-font-specification:'Liberation Sans, Normal';font-variant-ligatures:normal;font-variant-caps:normal;font-variant-numeric:normal;font-variant-east-asian:normal;writing-mode:lr-tb;direction:ltr;fill:#ffffff;fill-opacity:0.985677;stroke-width:1.02095"
         x="-1.8425448"
         y="180.41916"
         id="text3"
         transform="scale(1.0209452,0.97948454)"><tspan
           sodipodi:role="line"
           id="tspan3"
           x="-1.8425448"
           y="180.41916"
           style="fill:#ffffff;stroke-width:1.02095">education</tspan></text>
    </g>
  </g>
</svg>
